# xmcd
#
# Track frame offsets:
#	150
#	12050
#	23275
#	34425
#	48925
#	61775
#	74600
#	84800
#	97400
#	112175
#	125800
#	138075
#	151550
#	165625
#	176375
#	188325
#	202050
#	214050
#
# Disc length: 3015 seconds
#
# Revision: 0
# Processed by: cddbd v1.4PL0 Copyright (c) Steve Scherf et al.
# Submitted via: audiograbber 1.80.04
#
DISCID=ea0bc512
DTITLE=Various Artist - Feelin' The Blues - Diggin' The Rhythm 4
DYEAR=1992
DGENRE=Blues
TTITLE0=Muddy Waters - Gypsy Woman
TTITLE1=Howlin' Wolf - Wang Dang Doodle
TTITLE2=Little Walter - Just Your Fool
TTITLE3=Sonny Boy Williamson - Help Me
TTITLE4=John Lee Hooker - Leave My Wife Alone
TTITLE5=Little Milton - Your Precious Love
TTITLE6=Buddy Guy - First Time I Met The Blues
TTITLE7=Otis Spawn - I'm In Love With You Baby
TTITLE8=Otis Rush - So Many Roads, So Many Trains
TTITLE9=Jimmy Witherspoon - Ain't No Secret
TTITLE10=J.B. Lenoir - When I'm Drinkin'
TTITLE11=Jimmie Rogers - Left Me With a Broken Heart
TTITLE12=Memphis Slim - I Guess I'm A Fool
TTITLE13=Bo Diddley - Mona (I Need You Baby)
TTITLE14=Howlin' Wolf - My Country Sugar Mama
TTITLE15=Muddy Waters - Rollin' and Tumblin'
TTITLE16=Sonny Boy Williamson - Bring It On Home
TTITLE17=Little Walter - Boom Boom Out Goes The Lights
EXTD=
EXTT0=
EXTT1=
EXTT2=
EXTT3=
EXTT4=
EXTT5=
EXTT6=
EXTT7=
EXTT8=
EXTT9=
EXTT10=
EXTT11=
EXTT12=
EXTT13=
EXTT14=
EXTT15=
EXTT16=
EXTT17=
PLAYORDER=
